<svg width="569" height="186" xmlns="http://www.w3.org/2000/svg" xmlns:xlink="http://www.w3.org/1999/xlink" overflow="hidden"><defs><clipPath id="clip0"><rect x="468" y="474" width="569" height="186"/></clipPath></defs><g clip-path="url(#clip0)" transform="translate(-468 -474)"><path d="M566.984 490.143C572.611 490.143 578.239 492.289 582.533 496.583 591.12 505.17 591.12 519.093 582.533 527.68L530.63 579.583 499.532 548.486 551.435 496.583C555.729 492.289 561.357 490.143 566.984 490.143Z" fill="#FFFFFF" fill-rule="evenodd"/><path d="M45.1861 6.44045C41.2068 2.46121 35.7097 0 29.6375 0L0 0 0 43.9781 29.6375 43.9781C41.7817 43.9781 51.6266 34.1333 51.6266 21.989 51.6266 15.9169 49.1653 10.4197 45.1861 6.44045Z" fill="#FFFFFF" fill-rule="evenodd" transform="matrix(-0.707107 -0.707107 -0.707107 0.707107 527.095 513.875)"/><text fill="#FFFFFF" font-family="Aharoni,Aharoni_MSFontService,sans-serif" font-weight="700" font-size="88" transform="translate(571.661 580)">olunteery</text></g></svg>