<svg width="594" height="78" xmlns="http://www.w3.org/2000/svg" xmlns:xlink="http://www.w3.org/1999/xlink" overflow="hidden"><defs><clipPath id="clip0"><rect x="343" y="321" width="594" height="78"/></clipPath><clipPath id="clip1"><rect x="343" y="321" width="593" height="77"/></clipPath><clipPath id="clip2"><rect x="343" y="321" width="594" height="77"/></clipPath></defs><g clip-path="url(#clip0)" transform="translate(-343 -321)"><g clip-path="url(#clip1)"><g clip-path="url(#clip2)"><path d="M632.45 106.965C629.913 102.7 627.668 98.4354 625.716 94.1696L594.705 94.1696C598.868 99.7326 607.15 112.146 619.546 131.407L625.304 140.434C623.742 142.485 622.303 143.956 620.986 144.85 619.668 145.746 618.277 146.194 616.813 146.194 616.065 146.194 615.17 145.95 614.127 145.461 612.533 144.713 611.459 144.339 610.907 144.339 610.158 144.339 609.524 144.583 609.003 145.071 608.482 145.558 608.223 146.144 608.223 146.829 608.223 147.901 608.801 148.787 609.957 149.488 611.113 150.186 612.587 150.537 614.377 150.537 616.201 150.537 618.099 150.098 620.067 149.221 622.038 148.343 623.739 147.207 625.172 145.811 627.094 143.831 629.534 140.593 632.494 136.102L641.077 122.97C648.263 112.037 654.197 103.381 658.879 97.0011 659.432 96.3175 659.709 95.7317 659.709 95.244 659.709 94.6264 659.45 94.0727 658.929 93.5849 658.41 93.0982 657.826 92.8543 657.178 92.8543 656.69 92.8543 656.317 93.0003 656.057 93.2941 655.799 93.5869 655.15 94.5994 654.111 96.3274 651.199 101.382 646.55 108.768 640.162 118.488 637.558 115.071 634.987 111.229 632.45 106.965M576.947 101.345C579.122 99.7496 581.38 98.952 583.717 98.952 584.657 98.952 585.842 99.2938 587.273 99.9775 588.116 100.367 588.879 100.562 589.562 100.562 590.632 100.562 591.525 100.252 592.24 99.6357 592.953 99.018 593.312 98.2374 593.312 97.292 593.312 96.0896 592.717 95.0972 591.534 94.3145 590.348 93.5339 588.846 93.1442 587.029 93.1442 584.041 93.1442 580.861 94.3315 577.484 96.7053 576.022 97.7468 573.424 100.251 569.691 104.222L569.691 94.1676 544.655 94.1676 544.714 96.9981 544.947 116.911 544.773 134.821 544.713 144.777 544.654 147.46 569.739 147.46 569.544 128.037 569.641 109.297C572.338 105.59 574.773 102.939 576.947 101.345M510.25 119.352 504.296 119.158 504.296 104.937C504.296 101.236 504.524 98.9471 504.979 98.0706 505.696 96.6093 507.484 95.8787 510.347 95.8787 513.145 95.8787 514.999 96.5134 515.911 97.7777 516.301 98.2984 516.529 98.8581 516.593 99.4587 516.659 100.06 516.725 101.887 516.789 104.937L516.789 119.158 510.25 119.352ZM510.983 122.28 525.622 122.232 536.993 122.232C537.058 111.723 533.283 103.704 525.671 98.1735 520.791 94.6264 515.342 92.8543 509.323 92.8543 505.451 92.8543 501.742 93.6349 498.197 95.1961 494.586 96.7912 491.462 99.036 488.827 101.931 486.549 104.404 484.76 107.341 483.458 110.74 482.158 114.14 481.507 117.532 481.507 120.916 481.507 124.43 482.237 127.943 483.702 131.457 485.361 135.46 487.735 138.827 490.827 141.559 496.13 146.212 502.247 148.537 509.176 148.537 513.209 148.537 517.352 147.61 521.597 145.755 525.843 143.902 529.396 141.493 532.26 138.532 534.44 136.222 535.529 134.384 535.529 133.017 535.529 132.4 535.349 131.887 534.992 131.48 534.635 131.074 534.179 130.871 533.626 130.871 533.171 130.871 532.747 131.034 532.357 131.358 531.966 131.683 531.332 132.449 530.453 133.651 527.753 137.296 524.557 140.151 520.864 142.215 517.172 144.283 513.437 145.316 509.664 145.316 507.127 145.316 505.516 144.568 504.833 143.071 504.474 142.291 504.296 140.435 504.296 137.508L504.296 122.38 510.983 122.28ZM450.418 119.352 444.465 119.158 444.465 104.937C444.465 101.236 444.694 98.9471 445.149 98.0706 445.865 96.6093 447.653 95.8787 450.517 95.8787 453.314 95.8787 455.168 96.5134 456.079 97.7777 456.471 98.2984 456.697 98.8581 456.763 99.4587 456.828 100.06 456.894 101.887 456.957 104.937L456.957 119.158 450.418 119.352ZM451.152 122.28 465.792 122.232 477.163 122.232C477.227 111.723 473.453 103.704 465.841 98.1735 460.961 94.6264 455.51 92.8543 449.493 92.8543 445.62 92.8543 441.91 93.6349 438.366 95.1961 434.754 96.7912 431.631 99.036 428.996 101.931 426.718 104.404 424.928 107.341 423.627 110.74 422.325 114.14 421.676 117.532 421.676 120.916 421.676 124.43 422.407 127.943 423.871 131.457 425.531 135.46 427.905 138.827 430.997 141.559 436.299 146.212 442.417 148.537 449.346 148.537 453.379 148.537 457.521 147.61 461.766 145.755 466.012 143.902 469.565 141.493 472.429 138.532 474.608 136.222 475.698 134.384 475.698 133.017 475.698 132.4 475.519 131.887 475.163 131.48 474.805 131.074 474.349 130.871 473.797 130.871 473.341 130.871 472.918 131.034 472.526 131.358 472.137 131.683 471.503 132.449 470.624 133.651 467.923 137.296 464.727 140.151 461.033 142.215 457.342 144.283 453.608 145.316 449.833 145.316 447.296 145.316 445.687 144.568 445.002 143.071 444.645 142.291 444.466 140.435 444.466 137.508L444.466 122.38 451.152 122.28ZM382.78 88.4607 382.78 93.9768 379.217 93.7329C378.925 93.7009 378.418 93.6839 377.704 93.6839 376.174 93.6839 375.41 94.2766 375.41 95.462 375.41 96.6853 376.207 97.294 377.802 97.294 378.354 97.294 379.037 97.2629 379.852 97.196 380.828 97.1311 381.478 97.099 381.804 97.099 381.999 97.099 382.323 97.115 382.781 97.148L382.781 114.602 382.731 124.891 382.731 128.547C382.731 132.382 383.04 135.381 383.658 137.541 384.275 139.704 385.398 141.662 387.026 143.417 390.181 146.894 394.638 148.634 400.398 148.634 406.513 148.634 411.492 146.958 415.331 143.609 416.893 142.242 418.226 140.639 419.333 138.8 420.437 136.963 420.992 135.426 420.992 134.188 420.992 132.953 420.437 132.335 419.333 132.335 418.388 132.335 417.576 133.277 416.893 135.166 416.14 137.149 415.111 138.826 413.801 140.191 412.46 141.558 411.202 142.242 410.026 142.242 409.14 142.242 408.52 141.77 408.16 140.826 407.801 139.883 407.621 138.224 407.621 135.849L407.494 125.708 407.328 106.75 407.377 97.295 408.792 97.295C409.897 97.295 411.735 97.3939 414.307 97.5878 414.991 97.6538 415.559 97.6867 416.015 97.6867 417.511 97.6867 418.26 97.077 418.26 95.8577 418.26 94.5394 417.544 93.8797 416.113 93.8797 415.82 93.8797 415.479 93.8978 415.089 93.9297 412.777 94.1576 410.209 94.2715 407.378 94.2715L407.427 92.7574 407.964 76.9948C400.803 81.1575 392.409 84.9796 382.78 88.4607M305.721 94.1706 305.868 104.762 306.014 115.693 305.868 128.334 305.721 147.463 330.659 147.463 330.61 145.365 330.465 131.016 330.561 120.525 330.659 106.811 330.708 104.811C332.855 102.989 334.856 101.623 336.711 100.71 338.565 99.8006 340.289 99.3449 341.884 99.3449 343.608 99.3449 344.731 99.8655 345.251 100.906 345.511 101.427 345.666 102.022 345.715 102.688 345.763 103.354 345.804 105.428 345.837 108.91L345.885 123.941 345.76 133.896 345.593 147.463 370.385 147.463 370.239 136.092 370.337 113.497C370.337 108.162 369.921 104.316 369.092 101.955 368.262 99.5978 366.644 97.6208 364.237 96.0256 361.047 93.9118 357.144 92.8543 352.524 92.8543 349.075 92.8543 345.529 93.53 341.887 94.8782 338.241 96.2295 334.517 98.2545 330.71 100.954L330.71 94.1706 305.721 94.1706ZM269.413 94.1706 269.413 95.6848 269.706 112.814 269.608 130.236 269.559 136.629C266.891 138.712 264.72 140.161 263.044 140.973 261.368 141.787 259.75 142.194 258.188 142.194 256.658 142.194 255.617 141.771 255.064 140.924 254.608 140.176 254.381 137.931 254.381 134.189L254.333 127.943 254.284 118.671 254.576 94.1716 229.59 94.1716 229.834 110.227 229.785 117.841 229.688 129.26C229.688 132.774 229.907 135.482 230.345 137.385 230.784 139.29 231.572 140.989 232.71 142.487 235.765 146.52 240.688 148.538 247.478 148.538 251.182 148.538 254.733 147.919 258.129 146.683 261.524 145.449 265.286 143.415 269.413 140.583L269.413 147.464 294.4 147.464 294.253 132.532 294.4 94.1726 269.413 94.1726ZM194.16 80.8478 194.111 84.166 194.258 95.0502 194.307 104.955 194.189 123.354 194.131 137.409 194.013 145.168 194.013 147.462 218.951 147.462 218.951 145.559 218.756 121.451 218.854 107.934 218.903 100.516 219 83.3374 218.951 80.8488 194.16 80.8488ZM159.364 95.8787C164.862 95.8787 169.954 97.8496 174.639 101.79 180.43 106.676 183.325 113.043 183.325 120.889 183.325 124.798 182.545 128.381 180.983 131.636 178.999 135.74 176.021 139.03 172.053 141.504 167.92 144.046 163.593 145.315 159.071 145.315 158.682 145.315 157.981 145.283 156.973 145.217L157.119 95.9756C158.16 95.9117 158.908 95.8787 159.364 95.8787M139.599 100.417C133.743 105.755 130.815 112.456 130.815 120.524 130.815 124.657 131.644 128.577 133.303 132.286 135.287 136.678 138.2 140.273 142.039 143.071 146.951 146.715 152.483 148.537 158.632 148.537 162.308 148.537 165.838 147.837 169.223 146.438 173.353 144.748 176.851 142.225 179.715 138.875 181.765 136.434 183.382 133.637 184.57 130.48 185.758 127.326 186.352 124.185 186.352 121.061 186.352 116.507 185.343 112.196 183.325 108.13 181.048 103.511 177.746 99.8655 173.419 97.198 168.734 94.3036 163.773 92.8553 158.534 92.8553 151.409 92.9503 145.097 95.4719 139.599 100.417" fill="#FFFFFF" transform="matrix(1 0 0 1.00287 276.021 244.338)"/><path d="M120.341 80.7049C111.975 80.7049 104.955 86.7596 104.696 94.1996 104.657 95.303 105.523 96.1986 106.625 96.1986 107.731 96.1986 108.655 95.303 108.694 94.1996 108.877 88.9634 114.146 83.7512 120.201 84.7027 132.019 86.5617 128.658 98.6502 127.783 100.544 126.048 104.545 121.794 111.791 113.638 125.257L108.283 116.275C108.283 116.275 102.906 107.05 97.139 96.6993 91.3711 86.3488 86.3498 81.5254 77.6824 81.5254 71.4927 81.5254 64.8303 88.4957 67.6169 96.6983 69.3859 101.904 80.8678 118.805 80.8678 118.805L85.1195 125.687 89.1803 132.47 101.457 152.918 103.065 150.136C103.065 150.136 130.05 106.465 131.879 100.528 135.401 89.1053 128.707 80.7049 120.341 80.7049" fill="#FFFFFF" transform="matrix(1 0 0 1.00287 276.021 244.338)"/></g></g></g></svg>