<?xml version="1.0" encoding="utf-8"?>
<!-- Generator: Adobe Illustrator 15.1.0, SVG Export Plug-In . SVG Version: 6.00 Build 0)  -->
<!DOCTYPE svg PUBLIC "-//W3C//DTD SVG 1.1//EN" "http://www.w3.org/Graphics/SVG/1.1/DTD/svg11.dtd">
<svg version="1.1" id="Layer_1" xmlns="http://www.w3.org/2000/svg" xmlns:xlink="http://www.w3.org/1999/xlink" x="0px" y="0px"
	 width="725.67px" height="229.61px" viewBox="0 0 725.67 229.61" enable-background="new 0 0 725.67 229.61" xml:space="preserve">
<path d="M632.789,107.022c-2.539-4.268-4.785-8.534-6.738-12.802h-31.028c4.166,5.566,12.451,17.986,24.854,37.257l5.762,9.032
	c-1.563,2.052-3.003,3.524-4.321,4.419c-1.318,0.896-2.71,1.344-4.175,1.344c-0.749,0-1.644-0.244-2.687-0.733
	c-1.595-0.748-2.669-1.123-3.222-1.123c-0.75,0-1.384,0.244-1.905,0.733c-0.521,0.487-0.78,1.073-0.78,1.758
	c0,1.074,0.578,1.96,1.734,2.661c1.157,0.699,2.632,1.049,4.423,1.049c1.825,0,3.723-0.439,5.693-1.316
	c1.972-0.878,3.674-2.015,5.108-3.412c1.922-1.981,4.363-5.22,7.325-9.714l8.588-13.139c7.189-10.939,13.127-19.6,17.812-25.983
	c0.553-0.684,0.83-1.27,0.83-1.758c0-0.618-0.26-1.172-0.78-1.66c-0.52-0.487-1.104-0.731-1.753-0.731
	c-0.487,0-0.861,0.146-1.121,0.44c-0.259,0.293-0.908,1.306-1.947,3.035c-2.913,5.057-7.565,12.447-13.956,22.172
	C637.899,115.132,635.327,111.288,632.789,107.022 M577.256,101.399c2.176-1.596,4.435-2.394,6.773-2.394
	c0.941,0,2.127,0.342,3.558,1.026c0.844,0.39,1.607,0.585,2.29,0.585c1.071,0,1.965-0.31,2.68-0.927
	c0.714-0.618,1.072-1.399,1.072-2.345c0-1.203-0.594-2.196-1.778-2.979c-1.187-0.781-2.689-1.171-4.508-1.171
	c-2.989,0-6.172,1.188-9.55,3.563c-1.462,1.042-4.062,3.548-7.798,7.521v-10.06h-25.049l0.06,2.832l0.233,19.923l-0.175,17.92
	l-0.059,9.961l-0.06,2.685h25.099l-0.195-19.433l0.097-18.75C572.644,105.647,575.08,102.994,577.256,101.399 M510.523,119.416
	l-5.957-0.195v-14.228c0-3.703,0.228-5.993,0.684-6.87c0.716-1.462,2.506-2.193,5.37-2.193c2.8,0,4.655,0.635,5.567,1.9
	c0.39,0.521,0.618,1.081,0.683,1.682c0.065,0.602,0.131,2.429,0.196,5.481v14.228L510.523,119.416z M511.256,122.346l14.647-0.049
	h11.377c0.065-10.514-3.711-18.538-11.328-24.071c-4.883-3.549-10.335-5.322-16.356-5.322c-3.874,0-7.585,0.781-11.133,2.343
	c-3.613,1.596-6.738,3.842-9.375,6.739c-2.279,2.474-4.069,5.412-5.371,8.813c-1.302,3.402-1.953,6.796-1.953,10.182
	c0,3.515,0.731,7.03,2.197,10.547c1.659,4.004,4.035,7.373,7.129,10.106c5.305,4.656,11.426,6.983,18.358,6.983
	c4.036,0,8.18-0.928,12.428-2.784c4.248-1.854,7.804-4.264,10.669-7.226c2.181-2.312,3.271-4.151,3.271-5.519
	c0-0.618-0.18-1.13-0.538-1.538c-0.357-0.406-0.813-0.609-1.367-0.609c-0.455,0-0.879,0.163-1.269,0.487
	c-0.391,0.326-1.026,1.092-1.905,2.295c-2.702,3.646-5.899,6.503-9.594,8.569c-3.695,2.068-7.431,3.102-11.206,3.102
	c-2.539,0-4.151-0.749-4.834-2.246c-0.359-0.781-0.537-2.638-0.537-5.567v-15.136L511.256,122.346z M450.659,119.416l-5.957-0.195
	v-14.228c0-3.703,0.229-5.993,0.685-6.87c0.716-1.462,2.506-2.193,5.371-2.193c2.799,0,4.654,0.635,5.565,1.9
	c0.392,0.521,0.618,1.081,0.685,1.682c0.064,0.602,0.13,2.429,0.194,5.481v14.228L450.659,119.416z M451.393,122.346l14.648-0.049
	h11.377c0.064-10.514-3.711-18.538-11.328-24.071c-4.883-3.549-10.336-5.322-16.357-5.322c-3.875,0-7.586,0.781-11.133,2.343
	c-3.613,1.596-6.738,3.842-9.375,6.739c-2.279,2.474-4.07,5.412-5.371,8.813c-1.303,3.402-1.953,6.796-1.953,10.182
	c0,3.515,0.732,7.03,2.197,10.547c1.66,4.004,4.036,7.373,7.129,10.106c5.305,4.656,11.426,6.983,18.359,6.983
	c4.035,0,8.179-0.928,12.427-2.784c4.248-1.854,7.804-4.264,10.669-7.226c2.18-2.312,3.271-4.151,3.271-5.519
	c0-0.618-0.179-1.13-0.536-1.538c-0.358-0.406-0.814-0.609-1.367-0.609c-0.456,0-0.879,0.163-1.271,0.487
	c-0.39,0.326-1.024,1.092-1.903,2.295c-2.702,3.646-5.9,6.503-9.596,8.569c-3.693,2.068-7.43,3.102-11.206,3.102
	c-2.539,0-4.149-0.749-4.834-2.246c-0.357-0.781-0.537-2.638-0.537-5.567v-15.136L451.393,122.346z M382.984,88.508v5.519
	l-3.564-0.244c-0.293-0.032-0.799-0.049-1.514-0.049c-1.531,0-2.295,0.593-2.295,1.779c0,1.224,0.797,1.833,2.393,1.833
	c0.553,0,1.236-0.031,2.051-0.098c0.977-0.065,1.627-0.097,1.953-0.097c0.195,0,0.52,0.016,0.977,0.049v17.463l-0.049,10.294v3.658
	c0,3.838,0.309,6.838,0.928,9c0.617,2.163,1.74,4.123,3.369,5.878c3.157,3.48,7.617,5.22,13.379,5.22
	c6.119,0,11.1-1.676,14.941-5.028c1.563-1.367,2.896-2.971,4.004-4.811c1.105-1.838,1.66-3.376,1.66-4.614
	c0-1.236-0.555-1.854-1.66-1.854c-0.945,0-1.758,0.943-2.441,2.832c-0.754,1.985-1.783,3.662-3.093,5.028
	c-1.342,1.367-2.601,2.052-3.778,2.052c-0.886,0-1.506-0.473-1.867-1.416c-0.359-0.944-0.539-2.604-0.539-4.981l-0.127-10.146
	l-0.166-18.968l0.049-9.46h1.416c1.105,0,2.945,0.099,5.518,0.293c0.684,0.066,1.252,0.099,1.709,0.099
	c1.496,0,2.246-0.61,2.246-1.83c0-1.319-0.717-1.979-2.148-1.979c-0.293,0-0.635,0.018-1.025,0.05
	c-2.313,0.228-4.883,0.342-7.715,0.342l0.049-1.515l0.537-15.771C401.018,81.201,392.619,85.025,382.984,88.508 M305.885,94.221
	l0.146,10.597l0.147,10.937l-0.147,12.647l-0.146,19.14h24.951l-0.049-2.099l-0.146-14.356l0.097-10.498l0.098-13.721l0.049-2.001
	c2.148-1.823,4.15-3.19,6.006-4.103c1.855-0.91,3.58-1.366,5.176-1.366c1.725,0,2.848,0.521,3.369,1.562
	c0.26,0.521,0.415,1.116,0.464,1.783c0.048,0.667,0.089,2.742,0.122,6.225l0.048,15.039l-0.125,9.961l-0.167,13.574h24.805
	l-0.146-11.377l0.098-22.607c0-5.338-0.416-9.187-1.246-11.548c-0.83-2.359-2.449-4.337-4.857-5.933
	c-3.191-2.115-7.097-3.173-11.719-3.173c-3.451,0-6.999,0.676-10.644,2.025c-3.647,1.352-7.373,3.378-11.182,6.079v-6.787H305.885z
	 M269.557,94.221v1.515l0.293,17.138l-0.098,17.432l-0.049,6.396c-2.669,2.084-4.842,3.533-6.518,4.346
	c-1.677,0.814-3.296,1.222-4.859,1.222c-1.53,0-2.572-0.424-3.125-1.271c-0.456-0.748-0.683-2.994-0.683-6.738l-0.049-6.25
	l-0.049-9.276l0.293-24.513h-25l0.244,16.064l-0.049,7.618l-0.097,11.425c0,3.516,0.219,6.226,0.658,8.13
	c0.439,1.905,1.227,3.606,2.365,5.104c3.057,4.036,7.982,6.055,14.777,6.055c3.706,0,7.258-0.619,10.656-1.856
	c3.397-1.236,7.161-3.271,11.29-6.103v6.884h25l-0.147-14.94l0.147-38.38H269.557z M194.264,80.891l-0.049,3.32l0.147,10.89
	l0.048,9.911l-0.117,18.408l-0.058,14.063l-0.118,7.763v2.295h24.952v-1.904l-0.196-24.121l0.098-13.524l0.049-7.422l0.097-17.188
	l-0.048-2.49H194.264z M159.449,95.93c5.501,0,10.596,1.972,15.284,5.914c5.793,4.889,8.691,11.259,8.691,19.11
	c0,3.911-0.781,7.496-2.344,10.753c-1.986,4.106-4.964,7.397-8.935,9.873c-4.135,2.543-8.464,3.813-12.989,3.813
	c-0.39,0-1.091-0.032-2.099-0.099l0.146-49.267C158.245,95.963,158.993,95.93,159.449,95.93 M139.674,100.471
	c-5.859,5.34-8.789,12.045-8.789,20.117c0,4.135,0.83,8.058,2.49,11.769c1.985,4.394,4.899,7.991,8.74,10.791
	c4.915,3.646,10.45,5.469,16.602,5.469c3.678,0,7.21-0.701,10.596-2.101c4.133-1.691,7.633-4.215,10.498-7.567
	c2.051-2.442,3.669-5.241,4.858-8.399c1.188-3.156,1.782-6.299,1.782-9.424c0-4.557-1.009-8.87-3.027-12.938
	c-2.279-4.622-5.583-8.269-9.912-10.938c-4.688-2.896-9.652-4.345-14.893-4.345C151.49,93,145.175,95.523,139.674,100.471"/>
<path d="M120.405,80.748c-8.37,0-15.393,6.058-15.653,13.502c-0.039,1.104,0.827,2,1.93,2c1.106,0,2.031-0.896,2.07-2
	c0.183-5.239,5.455-10.454,11.513-9.502c11.825,1.86,8.462,13.955,7.587,15.85c-1.737,4.003-5.993,11.253-14.153,24.726
	l-5.358-8.987c0,0-5.379-9.23-11.15-19.586C91.42,86.395,86.396,81.569,77.724,81.569c-6.193,0-12.859,6.974-10.071,15.181
	c1.77,5.209,13.258,22.119,13.258,22.119l4.254,6.885l4.063,6.787L101.511,153l1.609-2.783c0,0,27-43.695,28.83-49.635
	C135.473,89.153,128.776,80.748,120.405,80.748"/>
</svg>
